<svg width="1280" height="720" xmlns="http://www.w3.org/2000/svg" xmlns:xlink="http://www.w3.org/1999/xlink" overflow="hidden"><defs><clipPath id="clip0"><rect x="0" y="0" width="1280" height="720"/></clipPath></defs><g clip-path="url(#clip0)"><rect x="0" y="0" width="1280" height="720" fill="#FFFFFF"/><path d="M609.5 339C609.5 328.23 619.126 319.5 631 319.5 642.874 319.5 652.5 328.23 652.5 339 652.5 349.77 642.874 358.5 631 358.5 619.126 358.5 609.5 349.77 609.5 339Z" stroke="#000000" stroke-width="1.33333" stroke-miterlimit="8" fill="#FFFFFF" fill-rule="evenodd"/><text font-family="Cambria Math,Cambria Math_MSFontService,sans-serif" font-weight="400" font-size="16" transform="translate(616.234 345)">ğ‘<tspan font-size="12" x="8.83331" y="5">0</tspan><tspan font-size="12" x="9.22668" y="-8">[</tspan><tspan font-size="12" x="13.3933" y="-8">1</tspan><tspan font-size="12" x="20.2267" y="-8">]</tspan></text><path d="M610.5 394.5C610.5 383.454 620.126 374.5 632 374.5 643.874 374.5 653.5 383.454 653.5 394.5 653.5 405.546 643.874 414.5 632 414.5 620.126 414.5 610.5 405.546 610.5 394.5Z" stroke="#000000" stroke-width="1.33333" stroke-miterlimit="8" fill="#FFFFFF" fill-rule="evenodd"/><text font-family="Cambria Math,Cambria Math_MSFontService,sans-serif" font-weight="400" font-size="16" transform="translate(617.059 401)">ğ‘<tspan font-size="12" x="8.46002" y="5">1</tspan><tspan font-size="12" x="9.22668" y="-9">[</tspan><tspan font-size="12" x="13.3934" y="-9">1</tspan><tspan font-size="12" x="20.2267" y="-9">]</tspan></text><path d="M610.5 450C610.5 439.23 620.126 430.5 632 430.5 643.874 430.5 653.5 439.23 653.5 450 653.5 460.77 643.874 469.5 632 469.5 620.126 469.5 610.5 460.77 610.5 450Z" stroke="#000000" stroke-width="1.33333" stroke-miterlimit="8" fill="#FFFFFF" fill-rule="evenodd"/><text font-family="Cambria Math,Cambria Math_MSFontService,sans-serif" font-weight="400" font-size="16" transform="translate(617.059 457)">ğ‘<tspan font-size="12" x="8.83331" y="4">2</tspan><tspan font-size="12" x="9.22668" y="-9">[</tspan><tspan font-size="12" x="13.3934" y="-9">1</tspan><tspan font-size="12" x="20.2267" y="-9">]</tspan></text><path d="M430.5 363.5C430.5 352.454 439.902 343.5 451.5 343.5 463.098 343.5 472.5 352.454 472.5 363.5 472.5 374.546 463.098 383.5 451.5 383.5 439.902 383.5 430.5 374.546 430.5 363.5Z" stroke="#000000" stroke-width="1.33333" stroke-miterlimit="8" fill="#FFFFFF" fill-rule="evenodd"/><text font-family="Cambria Math,Cambria Math_MSFontService,sans-serif" font-weight="400" font-size="16" transform="translate(436.441 370)">ğ‘<tspan font-size="12" x="8.83334" y="5">0</tspan><tspan font-size="12" x="9.22665" y="-8">[</tspan><tspan font-size="12" x="13.3933" y="-8">0</tspan><tspan font-size="12" x="20.2267" y="-8">]</tspan></text><path d="M430.5 419.5C430.5 408.454 439.902 399.5 451.5 399.5 463.098 399.5 472.5 408.454 472.5 419.5 472.5 430.546 463.098 439.5 451.5 439.5 439.902 439.5 430.5 430.546 430.5 419.5Z" stroke="#000000" stroke-width="1.33333" stroke-miterlimit="8" fill="#FFFFFF" fill-rule="evenodd"/><text font-family="Cambria Math,Cambria Math_MSFontService,sans-serif" font-weight="400" font-size="16" transform="translate(436.441 426)">ğ‘<tspan font-size="12" x="8.45999" y="5">1</tspan><tspan font-size="12" x="9.22665" y="-9">[</tspan><tspan font-size="12" x="13.3933" y="-9">0</tspan><tspan font-size="12" x="20.2267" y="-9">]</tspan></text><path d="M808.5 399.5C808.5 388.454 817.902 379.5 829.5 379.5 841.098 379.5 850.5 388.454 850.5 399.5 850.5 410.546 841.098 419.5 829.5 419.5 817.902 419.5 808.5 410.546 808.5 399.5Z" stroke="#000000" stroke-width="1.33333" stroke-miterlimit="8" fill="#FFFFFF" fill-rule="evenodd"/><text font-family="Cambria Math,Cambria Math_MSFontService,sans-serif" font-weight="400" font-size="16" transform="translate(814.832 406)">ğ‘<tspan font-size="12" x="8.83331" y="5">0</tspan><tspan font-size="12" x="9.22662" y="-9">[</tspan><tspan font-size="12" x="13.3933" y="-9">2</tspan><tspan font-size="12" x="20.2266" y="-9">]</tspan></text><path d="M0.0590055-0.328069 131.065 23.2342 130.947 23.8903-0.0590055 0.328069ZM130.401 19.3894 137.567 24.7424 128.985 27.2631Z" transform="matrix(1 0 0 -1 472.5 363.242)"/><path d="M472.573 363.175 604.457 392.57 604.312 393.22 472.428 363.825ZM603.954 388.701 610.892 394.345 602.213 396.509Z"/><path d="M472.677 363.217 605.414 446.119 605.06 446.684 472.323 363.783ZM606.225 442.303 610.892 449.933 601.988 449.088Z"/><path d="M472.573 419.175 604.457 448.57 604.312 449.22 472.428 419.825ZM603.954 444.701 610.892 450.345 602.213 452.509Z"/><path d="M0.168086-0.287851 131.978 76.6805 131.642 77.2562-0.168086 0.287851ZM132.676 72.8418 137.567 80.3301 128.641 79.7502Z" transform="matrix(1 0 0 -1 472.5 418.83)"/><path d="M0.0586648-0.32813 131.888 23.2409 131.77 23.8972-0.0586648 0.32813ZM131.221 19.3968 138.392 24.7424 129.813 27.272Z" transform="matrix(1 0 0 -1 472.5 419.242)"/><path d="M600.5 275.5 600.5 275.5" stroke="#4472C4" stroke-width="0.666667" stroke-miterlimit="8" fill="none" fill-rule="evenodd"/><path d="M652.62 338.189 802.775 396.319 802.534 396.94 652.38 338.811ZM802.855 392.418 808.871 399.036 799.967 399.878Z"/><path d="M653.511 394.167 802.394 398.903 802.373 399.57 653.489 394.833ZM801.178 395.196 809.047 399.449 800.923 403.192Z"/><path d="M0.103188-0.316959 149.31 48.2585 149.104 48.8924-0.103188 0.316959ZM149.178 44.3592 155.546 50.6393 146.701 51.9663Z" transform="matrix(1 0 0 -1 653.5 450.139)"/><path d="M430.5 271C430.5 260.23 439.902 251.5 451.5 251.5 463.098 251.5 472.5 260.23 472.5 271 472.5 281.77 463.098 290.5 451.5 290.5 439.902 290.5 430.5 281.77 430.5 271Z" stroke="#000000" stroke-width="1.33333" stroke-miterlimit="8" fill="#FFFFFF" fill-rule="evenodd"/><text font-family="Cambria Math,Cambria Math_MSFontService,sans-serif" font-weight="400" font-size="16" transform="translate(436.301 276)">ğ‘<tspan font-size="12" x="9.17334" y="-6">[</tspan><tspan font-size="12" x="13.34" y="-6">0</tspan><tspan font-size="12" x="20.1733" y="-6">]</tspan></text><path d="M610.5 271C610.5 260.23 620.126 251.5 632 251.5 643.874 251.5 653.5 260.23 653.5 271 653.5 281.77 643.874 290.5 632 290.5 620.126 290.5 610.5 281.77 610.5 271Z" stroke="#000000" stroke-width="1.33333" stroke-miterlimit="8" fill="#FFFFFF" fill-rule="evenodd"/><text font-family="Cambria Math,Cambria Math_MSFontService,sans-serif" font-weight="400" font-size="16" transform="translate(617.086 276)">ğ‘<tspan font-size="12" x="9.17334" y="-6">[</tspan><tspan font-size="12" x="13.34" y="-6">1</tspan><tspan font-size="12" x="20.1733" y="-6">]</tspan></text><path d="M472.648 270.201 604.241 335.366 603.945 335.964 472.352 270.799ZM604.673 331.489 610.067 338.624 601.123 338.658Z"/><path d="M472.722 270.252 606.144 389.52 605.699 390.017 472.278 270.749ZM607.593 385.898 610.892 394.211 602.262 391.862Z"/><path d="M472.764 270.296 607.082 444.318 606.555 444.725 472.236 270.704ZM609.17 441.022 610.892 449.799 602.837 445.91Z"/><path d="M653.713 270.243 804.122 394.654 803.697 395.168 653.288 270.757ZM805.432 390.979 809.047 399.16 800.333 397.143Z"/><text font-family="Cambria Math,Cambria Math_MSFontService,sans-serif" font-weight="400" font-size="16" transform="translate(694.215 299)">ğ‘<tspan font-size="12" x="8.16003" y="5">0</tspan><tspan font-size="12" x="9.17334" y="-9">[</tspan><tspan font-size="12" x="13.34" y="-9">1</tspan><tspan font-size="12" x="20.1733" y="-9">]</tspan><tspan font-size="16" x="-4.28192" y="49">ğ‘Š</tspan><tspan font-size="12" x="7.44476" y="54">0</tspan><tspan font-size="12" x="14.2781" y="54">0</tspan><tspan font-size="12" x="11.8848" y="40">[</tspan><tspan font-size="12" x="16.0514" y="40">1</tspan><tspan font-size="12" x="22.8848" y="40">]</tspan><tspan font-size="16" x="-4.28192" y="88">ğ‘Š</tspan><tspan font-size="12" x="7.44476" y="92">01</tspan><tspan font-size="12" x="11.8848" y="79">[</tspan><tspan font-size="12" x="16.0514" y="79">1</tspan><tspan font-size="12" x="22.8848" y="79">]</tspan><tspan font-size="16" x="-3.45715" y="124">ğ‘Š</tspan><tspan font-size="12" x="8.26953" y="129">02</tspan><tspan font-size="12" x="12.7095" y="115">[</tspan><tspan font-size="12" x="16.8762" y="115">1</tspan><tspan font-size="12" x="23.7095" y="115">]</tspan><tspan font-family="Times New Roman,Times New Roman_MSFontService,sans-serif" font-size="16" x="-279.667" y="-82">Input</tspan><tspan font-family="Times New Roman,Times New Roman_MSFontService,sans-serif" font-size="16" x="-241.833" y="-82">Layer</tspan><tspan font-family="Times New Roman,Times New Roman_MSFontService,sans-serif" font-size="16" x="-105.646" y="-82">Hidde</tspan><tspan font-family="Times New Roman,Times New Roman_MSFontService,sans-serif" font-size="16" x="-66.4796" y="-82">n</tspan><tspan font-family="Times New Roman,Times New Roman_MSFontService,sans-serif" font-size="16" x="-54.4796" y="-82">Layer</tspan><tspan font-family="Times New Roman,Times New Roman_MSFontService,sans-serif" font-size="16" x="84.2094" y="-82">Outpu</tspan><tspan font-family="Times New Roman,Times New Roman_MSFontService,sans-serif" font-size="16" x="124.209" y="-82">t</tspan><tspan font-family="Times New Roman,Times New Roman_MSFontService,sans-serif" font-size="16" x="132.709" y="-82">Layer</tspan><tspan font-size="16" x="-140.253" y="213">ğ‘</tspan><tspan font-size="12" x="-132.846" y="219">ğ‘—</tspan><tspan font-size="12" x="-131.026" y="205">[</tspan><tspan font-size="12" x="-126.86" y="205">ğ‘™</tspan><tspan font-size="12" x="-122.293" y="205">]</tspan><tspan font-size="16" x="-113.013" y="213">=</tspan><tspan font-size="16" x="-96.5664" y="213">ğœ™</tspan><tspan font-size="16" x="-85.2197" y="213">(</tspan><tspan font-size="16" x="-78.553" y="213">ğ‘§</tspan><tspan font-size="12" x="-72.7064" y="218">ğ‘—</tspan></text><path d="M633.014 495.307 635.627 495.307 635.627 506.481 633.014 506.481 633.014 506.03 634.655 506.03 634.655 495.758 633.014 495.758ZM625.445 495.307 628.058 495.307 628.058 495.758 626.417 495.758 626.417 506.03 628.058 506.03 628.058 506.481 625.445 506.481Z" fill-rule="evenodd"/><text font-family="Cambria Math,Cambria Math_MSFontService,sans-serif" font-weight="400" font-size="12" transform="translate(628.195 504)">ğ‘™<tspan font-size="16" x="9.32001" y="8">)</tspan><tspan font-size="16" x="-73.9942" y="44">ğ‘§</tspan><tspan font-size="12" x="-68.1475" y="50">ğ‘—</tspan><tspan font-size="12" x="-65.5475" y="36">[</tspan><tspan font-size="12" x="-61.3809" y="36">ğ‘™</tspan><tspan font-size="12" x="-56.8141" y="36">]</tspan><tspan font-size="16" x="-47.5342" y="44">=</tspan><tspan font-size="16" x="-31.0875" y="44">ğ‘Š</tspan><tspan font-size="12" x="-20.7875" y="49">ğ‘—ğ‘˜</tspan></text><path d="M622.18 531.396 624.793 531.396 624.793 542.569 622.18 542.569 622.18 542.118 623.821 542.118 623.821 531.847 622.18 531.847ZM614.611 531.396 617.224 531.396 617.224 531.847 615.583 531.847 615.583 542.118 617.224 542.118 617.224 542.569 614.611 542.569Z" fill-rule="evenodd"/><text font-family="Cambria Math,Cambria Math_MSFontService,sans-serif" font-weight="400" font-size="12" transform="translate(617.361 540)">ğ‘™<tspan font-size="16" x="9.32001" y="8">ğ‘</tspan><tspan font-size="12" x="18.1533" y="13">ğ‘˜</tspan></text><path d="M660.147 531.396 662.76 531.396 662.76 542.569 660.147 542.569 660.147 542.118 661.787 542.118 661.787 531.847 660.147 531.847ZM637.244 531.396 639.857 531.396 639.857 531.847 638.217 531.847 638.217 542.118 639.857 542.118 639.857 542.569 637.244 542.569Z" fill-rule="evenodd"/><text font-family="Cambria Math,Cambria Math_MSFontService,sans-serif" font-weight="400" font-size="12" transform="translate(639.995 540)">ğ‘™<tspan font-size="12" x="4.56671" y="0">âˆ’</tspan>1<tspan font-size="16" x="28.2067" y="8">+</tspan><tspan font-size="16" x="43.76" y="8">ğ‘</tspan><tspan font-size="12" x="50.4933" y="13">ğ‘—</tspan></text><path d="M701.833 531.396 704.447 531.396 704.447 542.569 701.833 542.569 701.833 542.118 703.474 542.118 703.474 531.847 701.833 531.847ZM694.264 531.396 696.877 531.396 696.877 531.847 695.237 531.847 695.237 542.118 696.877 542.118 696.877 542.569 694.264 542.569Z" fill-rule="evenodd"/><text font-family="Cambria Math,Cambria Math_MSFontService,sans-serif" font-weight="400" font-size="12" transform="translate(697.015 540)">ğ‘™<tspan font-size="16" x="-148.423" y="41">ğœ™</tspan></text><path d="M571.586 569.105C573.107 569.506 574.275 570.372 575.09 571.703 575.905 573.034 576.312 574.639 576.312 576.519 576.312 578.405 575.906 580.01 575.094 581.336 574.281 582.661 573.112 583.525 571.586 583.926L571.398 583.324C572.602 582.923 573.496 582.131 574.082 580.949 574.668 579.767 574.961 578.264 574.961 576.441 574.961 574.681 574.669 573.219 574.086 572.055 573.503 570.891 572.599 570.108 571.375 569.707ZM566.071 569.105 566.282 569.707C565.063 570.108 564.161 570.891 563.575 572.055 562.989 573.219 562.696 574.681 562.696 576.441 562.696 578.264 562.989 579.767 563.575 580.949 564.161 582.131 565.055 582.923 566.258 583.324L566.071 583.926C564.545 583.525 563.376 582.661 562.563 581.336 561.751 580.01 561.344 578.405 561.344 576.519 561.344 574.639 561.752 573.034 562.567 571.703 563.382 570.372 564.55 569.506 566.071 569.105Z" fill-rule="evenodd"/><text font-family="Cambria Math,Cambria Math_MSFontService,sans-serif" font-weight="400" font-size="16" transform="translate(566.578 581)">âˆ™<tspan font-size="16" x="15.5867" y="0">=</tspan><tspan font-size="16" x="32.0333" y="0">{</tspan><tspan font-size="16" x="38.2" y="0">ğ‘…ğ‘’ğ¿ğ‘ˆ</tspan><tspan font-size="16" x="76.18" y="0">,</tspan><tspan font-size="16" x="82.18" y="0">ğ‘†ğ‘–ğ‘”ğ‘šğ‘œğ‘–ğ‘‘</tspan><tspan font-size="16" x="142.187" y="0">,</tspan><tspan font-size="16" x="148.187" y="0">ğ¿ğ‘–ğ‘›ğ‘’ğ‘ğ‘Ÿ</tspan><tspan font-size="16" x="195.707" y="0">,</tspan><tspan font-size="16" x="201.707" y="0">ğ‘’ğ‘¡ğ‘</tspan><tspan font-size="16" x="223.88" y="0">.</tspan><tspan font-size="16" x="229.88" y="0">}</tspan><tspan font-family="Times New Roman,Times New Roman_MSFontService,sans-serif" font-size="21" x="-27.8237" y="-414">Multilayer Perceptron</tspan></text></g></svg>